<svg width="1015" height="340" viewBox="0 0 1015 340" fill="none" xmlns="http://www.w3.org/2000/svg">
<path fill-rule="evenodd" clip-rule="evenodd" d="M952.39 0H61.99C8.84999 0 0 18.4 0 62.16V278.23C0 321.96 18.2001 340 61.9301 340H952.4C996.16 340 1015 321.93 1015 278.17V62.16C1015 18.4 996.15 0 952.39 0Z" fill="black"/>
<path d="M87.05 67.55C84.77 68.35 83 70.48 83 73.23V271.52C83 274.25 84.74 276.36 86.99 277.18L192.33 172.34L87.05 67.55Z" fill="#00D6FF"/>
<path d="M222.01 142.8L92.0198 68.01C90.3898 67.07 88.6098 67 87.0498 67.55L192.33 172.34L222.01 142.8Z" fill="#00F076"/>
<path d="M92.0203 276.73L222.06 201.91L192.33 172.32L86.9902 277.16C88.5602 277.74 90.3703 277.68 92.0203 276.73Z" fill="#FF3A44"/>
<path d="M222.06 201.92L264.35 177.59C268.37 175.28 268.37 169.47 264.35 167.16L222.01 142.8L192.33 172.34L222.06 201.92Z" fill="#FFD000"/>
<path d="M510.053 194.746C491.779 194.746 477.312 208.447 477.312 227.487C477.312 245.761 491.779 260.228 510.053 260.228C528.328 260.228 542.794 246.527 542.794 227.487C542.794 207.681 528.328 194.746 510.053 194.746ZM510.053 246.507C500.16 246.507 491.779 238.135 491.779 226.712C491.779 215.288 500.15 206.916 510.053 206.916C519.946 206.916 528.328 214.532 528.328 226.712C528.328 238.135 519.956 246.507 510.053 246.507ZM439.252 194.746C420.978 194.746 406.511 208.447 406.511 227.487C406.511 245.761 420.978 260.228 439.252 260.228C457.527 260.228 471.993 246.527 471.993 227.487C471.983 207.681 457.527 194.746 439.252 194.746ZM439.252 246.507C429.359 246.507 420.978 238.135 420.978 226.712C420.978 215.288 429.349 206.916 439.252 206.916C449.155 206.916 457.527 214.532 457.527 226.712C457.527 238.135 449.145 246.507 439.252 246.507ZM354.74 204.639V218.34H387.481C386.716 225.956 383.673 232.041 379.865 235.849C375.302 240.412 367.686 245.742 354.74 245.742C334.189 245.742 318.957 229.754 318.957 209.203C318.957 188.651 334.945 172.664 354.74 172.664C365.399 172.664 373.77 177.227 379.865 182.557L389.758 172.664C381.386 165.048 370.728 158.963 355.496 158.963C328.084 158.963 304.491 181.801 304.491 209.212C304.491 236.624 328.094 259.462 355.496 259.462C370.718 259.462 381.377 254.898 390.514 244.996C399.651 235.859 402.693 222.913 402.693 213.02C402.693 209.978 402.693 206.926 401.928 204.649L354.74 204.639ZM700.384 215.297C697.341 207.681 689.725 194.746 672.972 194.746C656.219 194.746 642.518 207.691 642.518 227.487C642.518 245.761 656.219 260.228 674.493 260.228C688.96 260.228 698.097 251.09 701.139 245.761L690.481 238.145C686.673 243.475 682.109 247.282 674.493 247.282C666.877 247.282 662.314 244.24 658.506 237.39L701.905 219.115L700.384 215.297ZM656.229 225.956C656.229 213.776 666.122 206.926 672.982 206.926C678.311 206.926 683.64 209.968 685.162 213.776L656.229 225.956ZM620.445 257.166H634.912V161.995H620.445V257.166ZM597.607 201.597C593.799 197.789 587.714 193.981 580.099 193.981C564.111 193.981 548.889 208.447 548.889 226.721C548.889 244.996 563.355 258.697 580.099 258.697C587.714 258.697 593.799 254.889 596.852 251.081H597.617V255.644C597.617 267.824 590.767 274.674 580.108 274.674C571.737 274.674 565.642 268.58 564.121 263.25L551.941 268.58C555.749 276.951 564.886 287.61 580.874 287.61C597.627 287.61 611.328 277.717 611.328 254.113V196.248H597.627V201.597H597.607ZM580.854 246.507C570.961 246.507 562.58 238.135 562.58 226.712C562.58 215.288 570.952 206.916 580.854 206.916C590.757 206.916 598.363 215.288 598.363 226.712C598.363 238.135 590.757 246.507 580.854 246.507ZM766.621 162.005H732.359V257.175H746.825V221.392H766.621C782.609 221.392 797.831 209.968 797.831 191.704C797.831 173.439 782.609 162.005 766.621 162.005ZM767.387 207.681H746.835V174.941H767.387C778.045 174.941 784.14 184.078 784.14 190.928C783.374 199.31 777.28 207.681 767.387 207.681ZM854.931 193.981C844.273 193.981 833.614 198.544 829.806 208.447L842.751 213.776C845.794 208.447 850.367 206.926 855.696 206.926C863.312 206.926 870.163 211.489 870.919 219.105V219.871C868.632 218.35 862.547 216.063 856.452 216.063C842.751 216.063 829.041 223.679 829.041 237.38C829.041 250.325 840.465 258.697 852.644 258.697C862.537 258.697 867.111 254.133 870.919 249.559H871.684V257.175H885.385V220.636C883.864 203.873 870.919 193.981 854.931 193.981ZM853.41 246.507C848.846 246.507 841.986 244.22 841.986 238.135C841.986 230.52 850.357 228.243 857.208 228.243C863.303 228.243 866.345 229.764 870.153 231.285C868.642 240.422 861.026 246.507 853.41 246.507ZM933.348 196.267L917.36 237.38H916.605L899.852 196.267H884.629L909.754 254.133L895.288 286.108H909.754L948.58 196.267H933.348ZM805.447 257.166H819.913V161.995H805.447V257.166Z" fill="white"/>
<path d="M322.068 84.5599H332.403L350.461 132.631H340.46L336.495 121.148H317.966L314.001 132.631H304L322.068 84.5599ZM333.551 112.825L329.252 100.813L327.505 94.973H326.966L325.219 100.813L320.92 112.825H333.551Z" fill="white"/>
<path d="M356.104 84.5599H366.645L385.979 116.781H386.519L385.979 107.516V84.5599H394.979V132.631H385.45L365.036 98.5945H364.496L365.036 107.859V132.631H356.104V84.5599Z" fill="white"/>
<path d="M404.637 84.5599H420.88C424.688 84.5599 428.103 85.139 431.155 86.3069C434.198 87.4748 436.799 89.1138 438.938 91.2435C441.087 93.3733 442.726 95.9053 443.875 98.8595C445.013 101.814 445.582 105.062 445.582 108.595C445.582 112.178 445.013 115.446 443.875 118.4C442.736 121.354 441.087 123.886 438.938 125.986C436.789 128.087 434.198 129.726 431.155 130.884C428.113 132.052 424.688 132.631 420.88 132.631H404.637V84.5599ZM420.487 124.033C423.127 124.033 425.453 123.66 427.465 122.924C429.477 122.188 431.155 121.148 432.5 119.803C433.844 118.459 434.845 116.839 435.523 114.935C436.19 113.031 436.534 110.921 436.534 108.595C436.534 106.269 436.2 104.149 435.523 102.255C434.855 100.351 433.844 98.7319 432.5 97.3873C431.155 96.0427 429.477 95.0024 427.465 94.2663C425.453 93.5302 423.127 93.1573 420.487 93.1573H413.705V124.033H420.487Z" fill="white"/>
<path d="M452.904 84.5599H470.423C472.837 84.5599 475.035 84.9427 476.998 85.6984C478.971 86.4639 480.659 87.5141 482.062 88.8488C483.476 90.1934 484.555 91.7931 485.321 93.648C486.077 95.5029 486.459 97.5345 486.459 99.7231C486.459 101.333 486.194 102.844 485.655 104.257C485.115 105.671 484.379 106.947 483.436 108.085C482.494 109.223 481.395 110.234 480.149 111.108C478.892 111.981 477.577 112.659 476.184 113.159L476.115 113.63L489.001 132.091V132.631H478.598L466.183 114.572H461.953V132.631H452.894V84.5599H452.904ZM470.364 106.24C472.425 106.24 474.113 105.612 475.428 104.356C476.743 103.099 477.41 101.509 477.41 99.5858C477.41 98.7319 477.263 97.9075 476.979 97.1027C476.684 96.2979 476.252 95.5815 475.673 94.9533C475.094 94.3252 474.368 93.8247 473.494 93.442C472.621 93.0592 471.63 92.8727 470.511 92.8727H461.982V106.23H470.364V106.24Z" fill="white"/>
<path d="M517.286 133.701C513.704 133.701 510.387 133.053 507.315 131.757C504.253 130.462 501.593 128.685 499.355 126.418C497.118 124.161 495.361 121.491 494.085 118.429C492.809 115.367 492.171 112.089 492.171 108.595C492.171 105.101 492.809 101.823 494.085 98.7613C495.361 95.6992 497.118 93.0297 499.355 90.7724C501.593 88.5151 504.243 86.7387 507.315 85.4333C510.377 84.1378 513.704 83.4901 517.286 83.4901C520.869 83.4901 524.186 84.1378 527.258 85.4333C530.32 86.7288 532.97 88.5151 535.217 90.7724C537.455 93.0297 539.212 95.6992 540.488 98.7613C541.764 101.823 542.401 105.101 542.401 108.595C542.401 112.089 541.764 115.367 540.488 118.429C539.212 121.491 537.455 124.161 535.217 126.418C532.98 128.676 530.33 130.462 527.258 131.757C524.196 133.053 520.869 133.701 517.286 133.701ZM517.286 125.103C519.524 125.103 521.615 124.701 523.568 123.896C525.511 123.091 527.219 121.972 528.671 120.539C530.124 119.107 531.262 117.369 532.096 115.338C532.921 113.306 533.343 111.049 533.343 108.595C533.343 106.132 532.931 103.884 532.096 101.853C531.272 99.8213 530.124 98.0841 528.671 96.6512C527.219 95.2183 525.521 94.0995 523.568 93.2947C521.624 92.4899 519.524 92.0875 517.286 92.0875C515.049 92.0875 512.958 92.4899 511.005 93.2947C509.062 94.0995 507.354 95.2183 505.902 96.6512C504.449 98.0841 503.301 99.8213 502.477 101.853C501.652 103.894 501.23 106.142 501.23 108.595C501.23 111.059 501.642 113.306 502.477 115.338C503.301 117.379 504.449 119.107 505.902 120.539C507.354 121.972 509.052 123.091 511.005 123.896C512.958 124.701 515.049 125.103 517.286 125.103Z" fill="white"/>
<path d="M549.713 84.5599H558.772V132.631H549.713V84.5599Z" fill="white"/>
<path d="M568.439 84.5599H584.682C588.49 84.5599 591.905 85.139 594.957 86.3069C598 87.4748 600.601 89.1138 602.74 91.2435C604.89 93.3733 606.529 95.9053 607.677 98.8595C608.815 101.814 609.385 105.062 609.385 108.595C609.385 112.178 608.815 115.446 607.677 118.4C606.538 121.354 604.89 123.886 602.74 125.986C600.591 128.087 598 129.726 594.957 130.884C591.915 132.052 588.49 132.631 584.682 132.631H568.439V84.5599ZM584.289 124.033C586.929 124.033 589.255 123.66 591.267 122.924C593.279 122.188 594.957 121.148 596.302 119.803C597.647 118.459 598.648 116.839 599.325 114.935C599.992 113.031 600.336 110.921 600.336 108.595C600.336 106.269 600.002 104.149 599.325 102.255C598.657 100.351 597.647 98.7319 596.302 97.3873C594.957 96.0427 593.279 95.0024 591.267 94.2663C589.255 93.5302 586.929 93.1573 584.289 93.1573H577.507V124.033H584.289Z" fill="white"/>
<path d="M643.49 84.5599H653.824L671.883 132.631H661.882L657.917 121.148H639.387L635.422 132.631H625.421L643.49 84.5599ZM654.973 112.825L650.674 100.813L648.927 94.973H648.387L646.64 100.813L642.341 112.825H654.973Z" fill="white"/>
<path d="M677.526 132.621V84.5501H694.446C696.733 84.5501 698.862 84.9231 700.855 85.6591C702.847 86.3952 704.584 87.4355 706.056 88.7801C707.528 90.1247 708.696 91.7244 709.55 93.5794C710.404 95.4343 710.826 97.4854 710.826 99.7231C710.826 102.01 710.404 104.081 709.55 105.936C708.696 107.791 707.538 109.39 706.056 110.735C704.584 112.079 702.847 113.12 700.855 113.856C698.862 114.592 696.723 114.965 694.446 114.965H686.594V132.621H677.526ZM694.583 106.377C696.958 106.377 698.745 105.71 699.952 104.365C701.159 103.021 701.767 101.48 701.767 99.733C701.767 98.8791 701.62 98.0547 701.326 97.2499C701.031 96.4452 700.59 95.7385 699.981 95.1398C699.373 94.5313 698.627 94.0505 697.734 93.6971C696.841 93.3438 695.79 93.1573 694.583 93.1573H686.594V106.387H694.583V106.377Z" fill="white"/>
<path d="M717.274 132.621V84.5501H734.194C736.481 84.5501 738.611 84.9231 740.603 85.6591C742.596 86.3952 744.333 87.4355 745.805 88.7801C747.277 90.1247 748.445 91.7244 749.299 93.5794C750.153 95.4343 750.575 97.4854 750.575 99.7231C750.575 102.01 750.153 104.081 749.299 105.936C748.445 107.791 747.287 109.39 745.805 110.735C744.333 112.079 742.596 113.12 740.603 113.856C738.611 114.592 736.471 114.965 734.194 114.965H726.343V132.621H717.274ZM734.322 106.377C736.697 106.377 738.483 105.71 739.69 104.365C740.898 103.021 741.506 101.48 741.506 99.733C741.506 98.8791 741.359 98.0547 741.065 97.2499C740.77 96.4452 740.328 95.7385 739.72 95.1398C739.111 94.5313 738.366 94.0505 737.472 93.6971C736.579 93.3438 735.529 93.1573 734.322 93.1573H726.333V106.387H734.322V106.377Z" fill="white"/>
<path d="M793.199 133.701C789.616 133.701 786.289 133.053 783.227 131.757C780.165 130.462 777.505 128.685 775.268 126.418C773.03 124.161 771.273 121.491 769.997 118.429C768.721 115.367 768.083 112.089 768.083 108.595C768.083 105.101 768.721 101.823 769.997 98.7613C771.273 95.6992 773.03 93.0297 775.268 90.7724C777.505 88.5151 780.155 86.7387 783.227 85.4333C786.289 84.1378 789.616 83.4901 793.199 83.4901C796.781 83.4901 800.098 84.1378 803.17 85.4333C806.232 86.7288 808.892 88.5151 811.129 90.7724C813.367 93.0297 815.124 95.6992 816.4 98.7613C817.676 101.823 818.314 105.101 818.314 108.595C818.314 112.089 817.676 115.367 816.4 118.429C815.124 121.491 813.367 124.161 811.129 126.418C808.892 128.676 806.242 130.462 803.17 131.757C800.098 133.053 796.781 133.701 793.199 133.701ZM793.199 125.103C795.436 125.103 797.527 124.701 799.48 123.896C801.433 123.091 803.131 121.972 804.583 120.539C806.036 119.107 807.174 117.369 808.008 115.338C808.833 113.306 809.255 111.049 809.255 108.595C809.255 106.132 808.843 103.884 808.008 101.853C807.184 99.8213 806.036 98.0841 804.583 96.6512C803.131 95.2183 801.433 94.0995 799.48 93.2947C797.527 92.4899 795.436 92.0875 793.199 92.0875C790.961 92.0875 788.87 92.4899 786.917 93.2947C784.964 94.0995 783.266 95.2183 781.814 96.6512C780.361 98.0841 779.223 99.8213 778.389 101.853C777.564 103.894 777.142 106.142 777.142 108.595C777.142 111.059 777.554 113.306 778.389 115.338C779.213 117.379 780.361 119.107 781.814 120.539C783.266 121.972 784.974 123.091 786.917 123.896C788.861 124.701 790.961 125.103 793.199 125.103Z" fill="white"/>
<path d="M825.615 84.5599H836.156L855.49 116.781H856.03L855.49 107.516V84.5599H864.49V132.631H854.96L834.556 98.5945H834.016L834.556 107.859V132.631H825.625V84.5599H825.615Z" fill="white"/>
</svg>
