<svg id="Слой_1" data-name="Слой 1" xmlns="http://www.w3.org/2000/svg" viewBox="0 0 292.58 103.59"><defs><style>.cls-1{fill:#050505;}.cls-2{fill:#bcbbbb;}.cls-3{fill:#bcbcbc;}.cls-4{fill:#c0bfbf;}.cls-5{fill:#359dd8;}.cls-6{fill:#f9b713;}.cls-7{fill:#7eb929;}.cls-8{fill:#e85228;}.cls-9{fill:#fbfafb;}.cls-10{fill:#fbfbfb;}.cls-11{fill:#faf9fa;}.cls-12{fill:#fafafa;}.cls-13{fill:#f8f8f9;}.cls-14{fill:#fcfcfc;}.cls-15{fill:#f4f3f4;}.cls-16{fill:#f4f4f4;}.cls-17{fill:#fdfcfc;}.cls-18{fill:#f3f2f3;}.cls-19{fill:#e9e9e9;}.cls-20{fill:#eae9ea;}.cls-21{fill:#f5f5f5;}.cls-22{fill:#f9f9f9;}.cls-23{fill:#eae9e9;}.cls-24{fill:#f1f0f1;}.cls-25{fill:#090909;}.cls-26{fill:#0a0b0b;}.cls-27{fill:#0e0f0f;}.cls-28{fill:#232323;}</style></defs><g id="_8mL1BI.tif" data-name="8mL1BI.tif"><path class="cls-1" d="M10.7.08C12,.05,13.19,0,14.44,0H278.33c1.24,0,2.49.05,3.73.08,3.43,1.09,6.44,2.78,8.36,6,.67,1.1,1.21,2.27,1.81,3.41l.08,1,.27,1.62q0,28.18,0,56.36,0,11.79,0,23.58l-.24,1.16c-.07.48-.15,1-.23,1.44a3.09,3.09,0,0,0-.43.54c-2.52,5.83-6.95,8.52-13.31,8.47-13.22-.09-26.44,0-39.66,0q-112.38,0-224.75,0c-4,0-7.4-1.17-10-4.11a38.06,38.06,0,0,1-3.23-4.9L.45,93.14c0-1.23-.1-2.47-.1-3.71q0-27.45,0-54.92c0-8,.07-16.06.1-24.09l.09-1C2.46,4.75,5.69,1.45,10.7.08Zm40,80.69V53.39H23.22V80.77Zm30.6-.08V53.41H53.85V80.69ZM53.82,50.14H81.35V23H53.82ZM50.75,23H23.23V50.13H50.75ZM129.4,80.83V51.68h-6.83c-3,7.19-5.89,14.28-9,21.81-3-7.6-5.75-14.73-8.53-21.83H97.88v29.1h4.69v-22l.28,0c3,7.38,6,14.76,9,22.07h3.43c3-7.38,5.86-14.67,8.77-22l.49.12V80.83Zm124.81-16.9v2.61c0,3-.06,6,0,9s1.53,5.23,4,5.6a39.9,39.9,0,0,0,5.9.06V77.05h-4c-1.66-4.38-.45-8.78-.91-13.33H264v-4h-4.89v-6l-5,1.54v4.63h-7.88c.58-2.11.63-4.12,1.64-5.37.73-.91,2.72-.82,4.27-1.2V49.85a7.72,7.72,0,0,0-7,.71c-3.48,2.09-3.62,5.64-3.46,9.18l-3.39.22v3.81l3.42.22V80.85h5.06V63.93Zm-78.45,6.61c0,6.62,3.74,10.65,10.26,10.84,4.48.14,8.31-1.34,10.19-5.63,2-4.49,1.87-9.06-1.36-13.08a8.67,8.67,0,0,0-3.39-2.41C184.88,57.63,175.61,60.47,175.76,70.54Zm40.25.2a33.85,33.85,0,0,0,.59,3.65c1.6,5.82,7.59,8.29,14.12,6.41,5.39-1.56,8.16-7.32,6.78-13.45-.8-3.57-2.71-6.25-6.28-7.36C224.29,57.84,216,60.91,216,70.74Zm-3.34-10.48a11.7,11.7,0,0,0-8.31-.39,6.38,6.38,0,0,0-4.53,6.88c.35,2.48,2,3.89,4.11,4.91,1.61.77,3.21,1.58,4.67,2.3a12.8,12.8,0,0,1,.17,1.62,5.76,5.76,0,0,1-.27,1.07c-2.9,1.3-3.31,1.26-8.55-.82v4.52a15.06,15.06,0,0,0,8,.82c3.75-.61,6-3.28,5.86-6.78-.12-2.45-1.59-3.92-3.59-5a43.14,43.14,0,0,1-4.2-2.08,2.85,2.85,0,0,1-1.09-2.21c.05-.59.94-1.38,1.61-1.58a6.35,6.35,0,0,1,2.91,0,23.62,23.62,0,0,1,3.23,1.09Zm-53.33.39c-4.84-2.66-11.59-.9-14.21,2.89-3.06,4.42-2.93,10.76.26,14.53,3.36,4,10.57,4.22,13.89,1.89V75.83c-4.65,2-7.61,1.86-9.69-.48a7.89,7.89,0,0,1-.41-9.06c2.8-3.8,6.43-3.07,10.16-1.32Zm3.92,20.13h4.8V78.23c0-2.9-.1-5.81.09-8.7.31-4.76,2.27-6.11,7.08-5.09V59.83c-2.91-.72-5.11.21-6.92,2.65-.21-1.06-.36-1.84-.48-2.49h-4.57ZM110.58,25.05c-5-2.46-10.43-1.46-13.08,2.24S95.29,37.1,98.17,40s8.61,3.23,12.32.65v-8h-6.06l.14,1.93h3.67v4.92c-2.91,1.64-7.13.65-8.62-1.31-1.77-2.35-1.91-7.12-.18-9.66,1.94-2.85,5.08-3.46,10.28-1.95ZM205,30.28l-.37-1.43L202.8,29V41.92h2c0-.79,0-1.45,0-2.1,0-2-.1-4,.07-6,.19-2.17,1.51-3.47,3.2-3.47S210.83,31.45,211,34c.06.82,0,1.65,0,2.48,0,1.8,0,3.6,0,5.48h2.23c0-2,0-3.92,0-5.81a13.24,13.24,0,0,1,.39-3.4,2.92,2.92,0,0,1,3.36-2.31c1.73.28,2.24,1.52,2.26,3.06,0,2.57,0,5.13.07,7.7a4.3,4.3,0,0,0,.23.86l2.1-.13c0-3,.11-5.88,0-8.68-.19-3.46-2.42-5.39-5.31-4.59a17.36,17.36,0,0,0-3.59,2C210.21,27.84,208.68,27.72,205,30.28Zm-65.8,50.54V59.9h-4.68V80.82Zm53.21-38.47c4.06,0,6.68-2.65,6.75-6.89s-2.45-7-6.33-7c-4.1,0-6.92,2.82-6.93,7.07C185.9,39.61,188.48,42.33,192.42,42.35Zm-67-6.46c0-.94,0-1.6,0-2.26-.32-3.88-3.5-6-7.23-4.81-3.43,1.08-5.18,5.19-3.95,9.24,1.09,3.54,4.46,5.17,8.36,4a15.37,15.37,0,0,0,2-.87c.11-.05.15-.26.29-.5l-.7-1.15c-5.25,1.9-8,.59-7.67-3.67Zm46.44-10.78,3.35-1,.13-1.17c-4.13-1.08-5.67.37-6.09,5.65l-2,.46.12,1.39,2.13.61v11l2.38-.17V30.83l2.78-.19.12-1.73-2.91-.14Zm-19,5.78c0,2.45,0,4.84,0,7.24.06,3.72,1.93,5,5.63,3.66l-.27-1.34-2.73-.2V30.81l2.81-.16.1-1.7-3.08-.24-.2-3.54-2.31.67v2.91l-2.17.19.25,1.69Zm-21-.09,3.24-.16.08-1.81H132l-.19-3.72-2,.74-.26,2.88-2.1.26.1,1.5,2.15.57v3.61c0,1.15,0,2.31,0,3.47.1,3.52,1.7,4.77,5.1,4,.21,0,.36-.31.59-.52l-.5-1.1-2.62-.27C131.59,37.06,132.06,34,131.9,30.8ZM177.41,29V42l2.06-.11c0-2.31-.08-4.45,0-6.59.16-3.29,1.21-4.41,4.46-4.92l.31-1.53c-2.13-.79-3.37.5-4.63,1.83-.15-.76-.26-1.27-.35-1.74ZM147.54,42v-13h-2.08V42Zm-7.63,11.89a3,3,0,0,0-3-3,3,3,0,0,0-3.05,2.93,3,3,0,0,0,2.85,2.87A3,3,0,0,0,139.91,53.85Zm5-29.41c.51,1.48,1.37,1.9,2.85,1.08.61-1.39.29-2.29-1.39-2.65a8.24,8.24,0,0,0-1,.69A4.25,4.25,0,0,0,144.87,24.44Z"/><path class="cls-2" d="M.45,10.42c0,8-.1,16.06-.1,24.09q0,27.47,0,54.92c0,1.24.07,2.48.1,3.71A15.5,15.5,0,0,1,0,90.54Q0,51.78,0,13A15.79,15.79,0,0,1,.45,10.42Z"/><path class="cls-3" d="M292.58,12l-.27-1.62Z"/><path class="cls-4" d="M292.31,93.14l.24-1.16Z"/><path class="cls-5" d="M50.74,80.77H23.22V53.39H50.74Z"/><path class="cls-6" d="M81.34,80.69H53.85V53.41H81.34Z"/><path class="cls-7" d="M53.82,50.14V23H81.35V50.14Z"/><path class="cls-8" d="M50.75,23V50.13H23.23V23Z"/><path class="cls-9" d="M129.4,80.83h-4.84V59l-.49-.12c-2.91,7.3-5.82,14.59-8.77,22h-3.43c-3-7.31-6-14.69-9-22.07l-.28,0v22H97.88V51.66h7.17c2.78,7.1,5.56,14.23,8.53,21.83,3.1-7.53,6-14.62,9-21.81h6.83Z"/><path class="cls-10" d="M254.21,63.93h-7.36V80.85h-5.06V64l-3.42-.22V60l3.39-.22c-.16-3.54,0-7.09,3.46-9.18a7.72,7.72,0,0,1,7-.71v3.41c-1.55.38-3.54.29-4.27,1.2-1,1.25-1.06,3.26-1.64,5.37h7.88V55.2l5-1.54v6H264v4h-4.91c.46,4.55-.75,9,.91,13.33h4v4.11a39.9,39.9,0,0,1-5.9-.06c-2.42-.37-3.86-2.56-4-5.6s0-6,0-9Z"/><path class="cls-11" d="M175.76,70.54c-.15-10.07,9.12-12.91,15.7-10.28a8.67,8.67,0,0,1,3.39,2.41c3.23,4,3.33,8.59,1.36,13.08C194.33,80,190.5,81.52,186,81.38,179.5,81.19,175.73,77.16,175.76,70.54Zm4.89-.09.22,0c0,.33,0,.66,0,1,.29,3.66,2.22,5.68,5.51,5.76,3.45.09,5.38-1.59,5.78-5.37a14,14,0,0,0-.4-4.64A4.69,4.69,0,0,0,187,63.59c-2.63-.12-4.53.87-5.42,3.07A28.06,28.06,0,0,0,180.65,70.45Z"/><path class="cls-12" d="M216,70.74c0-9.83,8.28-12.9,15.21-10.75,3.57,1.11,5.48,3.79,6.28,7.36,1.38,6.13-1.39,11.89-6.78,13.45-6.53,1.88-12.52-.59-14.12-6.41A33.85,33.85,0,0,1,216,70.74Zm5.05-.17.19,0v.49c.09,3.72,1.92,5.94,5.08,6.14,3.73.23,5.55-1.25,6.08-5.23a13.57,13.57,0,0,0-.21-4.4,4.66,4.66,0,0,0-4.43-4c-2.84-.28-5,.76-5.87,3.11A24.16,24.16,0,0,0,221.06,70.57Z"/><path class="cls-12" d="M212.67,60.26v4.36a23.62,23.62,0,0,0-3.23-1.09,6.35,6.35,0,0,0-2.91,0c-.67.2-1.56,1-1.61,1.58A2.85,2.85,0,0,0,206,67.33a43.14,43.14,0,0,0,4.2,2.08c2,1.06,3.47,2.53,3.59,5,.17,3.5-2.11,6.17-5.86,6.78a15.06,15.06,0,0,1-8-.82V75.83c5.24,2.08,5.65,2.12,8.55.82a5.76,5.76,0,0,0,.27-1.07,12.8,12.8,0,0,0-.17-1.62c-1.46-.72-3.06-1.53-4.67-2.3-2.12-1-3.76-2.43-4.11-4.91a6.38,6.38,0,0,1,4.53-6.88A11.7,11.7,0,0,1,212.67,60.26Z"/><path class="cls-13" d="M159.34,60.65V65c-3.73-1.75-7.36-2.48-10.16,1.32a7.89,7.89,0,0,0,.41,9.06c2.08,2.34,5,2.5,9.69.48V80C156,82.29,148.75,82,145.39,78.07c-3.19-3.77-3.32-10.11-.26-14.53C147.75,59.75,154.5,58,159.34,60.65Z"/><path class="cls-14" d="M163.26,80.78V60h4.57c.12.65.27,1.43.48,2.49,1.81-2.44,4-3.37,6.92-2.65v4.61c-4.81-1-6.77.33-7.08,5.09-.19,2.89-.07,5.8-.09,8.7v2.55Z"/><path class="cls-15" d="M110.58,25.05l-.86,1.54c-5.2-1.51-8.34-.9-10.28,1.95-1.73,2.54-1.59,7.31.18,9.66,1.49,2,5.71,2.95,8.62,1.31V34.59h-3.67l-.14-1.93h6.06v8c-3.71,2.58-9.36,2.31-12.32-.65S95,30.84,97.5,27.29,105.53,22.59,110.58,25.05Z"/><path class="cls-16" d="M205,30.28c3.67-2.56,5.2-2.44,7.77.34a17.36,17.36,0,0,1,3.59-2c2.89-.8,5.12,1.13,5.31,4.59.14,2.8,0,5.63,0,8.68l-2.1.13a4.3,4.3,0,0,1-.23-.86c0-2.57,0-5.13-.07-7.7,0-1.54-.53-2.78-2.26-3.06a2.92,2.92,0,0,0-3.36,2.31,13.24,13.24,0,0,0-.39,3.4c-.06,1.89,0,3.79,0,5.81h-2.23c0-1.88,0-3.68,0-5.48,0-.83,0-1.66,0-2.48-.2-2.51-1.09-3.58-2.91-3.57s-3,1.3-3.2,3.47c-.17,2-.06,4-.07,6,0,.65,0,1.31,0,2.1h-2V29l1.84-.14Z"/><path class="cls-17" d="M139.21,80.82h-4.68V59.9h4.68Z"/><path class="cls-18" d="M192.42,42.35c-3.94,0-6.52-2.74-6.51-6.83,0-4.25,2.83-7.11,6.93-7.07,3.88.05,6.4,2.84,6.33,7S196.48,42.37,192.42,42.35Zm4.37-6.91c0-3-1.28-4.81-3.65-5-2.71-.27-4.65,1.51-4.83,4.44-.22,3.6,1.35,5.64,4.33,5.63C195.37,40.45,196.79,38.73,196.79,35.44Z"/><path class="cls-16" d="M125.45,35.89h-8.86c-.35,4.26,2.42,5.57,7.67,3.67l.7,1.15c-.14.24-.18.45-.29.5a15.37,15.37,0,0,1-2,.87c-3.9,1.15-7.27-.48-8.36-4-1.23-4.05.52-8.16,3.95-9.24,3.73-1.18,6.91.93,7.23,4.81C125.5,34.29,125.45,35,125.45,35.89Zm-2.21-1.7c-.38-3-1.39-4-3.59-3.83-2,.17-3.13,1.67-3,3.83Z"/><path class="cls-19" d="M171.89,25.11v3.66l2.91.14-.12,1.73-2.78.19V41.89l-2.38.17v-11l-2.13-.61-.12-1.39,2-.46c.42-5.28,2-6.73,6.09-5.65l-.13,1.17Z"/><path class="cls-20" d="M152.88,30.89l-2-.26-.25-1.69,2.17-.19V25.84l2.31-.67.2,3.54,3.08.24-.1,1.7-2.81.16v9.44l2.73.2.27,1.34c-3.7,1.32-5.57.06-5.63-3.66C152.85,35.73,152.88,33.34,152.88,30.89Z"/><path class="cls-21" d="M131.9,30.8c.16,3.16-.31,6.26.34,9.43l2.62.27.5,1.1c-.23.21-.38.48-.59.52-3.4.79-5-.46-5.1-4,0-1.16,0-2.32,0-3.47V31.06l-2.15-.57-.1-1.5,2.1-.26.26-2.88,2-.74.19,3.72h3.21l-.08,1.81Z"/><path class="cls-22" d="M177.41,29h1.87c.09.47.2,1,.35,1.74,1.26-1.33,2.5-2.62,4.63-1.83L184,30.39c-3.25.51-4.3,1.63-4.46,4.92-.1,2.14,0,4.28,0,6.59l-2.06.11Z"/><path class="cls-23" d="M147.54,42h-2.08v-13h2.08Z"/><path class="cls-15" d="M139.91,53.85a3,3,0,0,1-3.17,2.8,3,3,0,0,1-2.85-2.87,3,3,0,0,1,3.05-2.93A3,3,0,0,1,139.91,53.85Z"/><path class="cls-24" d="M144.87,24.44a4.25,4.25,0,0,1,.51-.88,8.24,8.24,0,0,1,1-.69c1.68.36,2,1.26,1.39,2.65C146.24,26.34,145.38,25.92,144.87,24.44Z"/><path class="cls-25" d="M180.65,70.45a28.06,28.06,0,0,1,1-3.79c.89-2.2,2.79-3.19,5.42-3.07a4.69,4.69,0,0,1,4.72,3.65,14,14,0,0,1,.4,4.64c-.4,3.78-2.33,5.46-5.78,5.37-3.29-.08-5.22-2.1-5.51-5.76,0-.33,0-.66,0-1Z"/><path class="cls-26" d="M221.06,70.57a24.16,24.16,0,0,1,.84-3.83c.9-2.35,3-3.39,5.87-3.11a4.66,4.66,0,0,1,4.43,4,13.57,13.57,0,0,1,.21,4.4c-.53,4-2.35,5.46-6.08,5.23-3.16-.2-5-2.42-5.08-6.14v-.49Z"/><path class="cls-27" d="M196.79,35.44c0,3.29-1.42,5-4.15,5-3,0-4.55-2-4.33-5.63.18-2.93,2.12-4.71,4.83-4.44C195.51,30.63,196.79,32.4,196.79,35.44Z"/><path class="cls-28" d="M123.24,34.19h-6.57c-.15-2.16,1-3.66,3-3.83C121.85,30.16,122.86,31.18,123.24,34.19Z"/></g></svg>